<?xml version="1.0" standalone="no"?><svg xmlns="http://www.w3.org/2000/svg" viewBox="0 0 1440 320"><path fill="#a2d9ff" fill-opacity="1" d="M0,256L30,224C60,192,120,128,180,106.7C240,85,300,107,360,96C420,85,480,43,540,58.7C600,75,660,149,720,165.3C780,181,840,139,900,138.7C960,139,1020,181,1080,181.3C1140,181,1200,139,1260,149.3C1320,160,1380,224,1410,256L1440,288L1440,320L1410,320C1380,320,1320,320,1260,320C1200,320,1140,320,1080,320C1020,320,960,320,900,320C840,320,780,320,720,320C660,320,600,320,540,320C480,320,420,320,360,320C300,320,240,320,180,320C120,320,60,320,30,320L0,320Z"></path></svg>